<svg version="1.1" id="Layer_1" xmlns="http://www.w3.org/2000/svg" xmlns:xlink="http://www.w3.org/1999/xlink" x="0px" y="0px"
	 width="100%" viewBox="0 0 500 500" enable-background="new 0 0 500 500" xml:space="preserve">
<path fill="#100B2D" opacity="1.000000" stroke="none" 
	d="
M462.000000,501.000000 
	C308.000031,501.000000 154.500076,501.000000 1.000082,501.000000 
	C1.000055,334.333405 1.000055,167.666824 1.000027,1.000172 
	C167.666550,1.000115 334.333099,1.000115 500.999756,1.000057 
	C500.999817,167.666519 500.999817,334.333038 500.999908,500.999756 
	C488.166656,501.000000 475.333344,501.000000 462.000000,501.000000 
M173.534210,298.005676 
	C185.366592,298.005524 197.199265,298.057892 209.031281,297.992432 
	C225.062927,297.903717 235.992554,286.913757 236.003754,270.962769 
	C236.013123,257.630524 236.012329,244.298294 236.003952,230.966049 
	C235.994049,215.208389 225.184372,204.141159 209.501358,204.017502 
	C196.003311,203.911057 182.503357,203.930710 169.004959,204.011734 
	C153.399567,204.105408 142.509171,214.714996 142.290024,230.258987 
	C142.095047,244.088425 142.236359,257.922791 142.254044,271.754944 
	C142.263931,279.484985 145.008453,286.021912 150.753937,291.291962 
	C156.974350,296.997681 164.475525,298.395538 173.534210,298.005676 
M304.109924,260.471252 
	C308.056915,248.808182 304.733368,237.467102 295.403137,230.760895 
	C286.099030,224.073456 272.833435,224.164566 263.693970,230.978729 
	C254.842865,237.577911 251.128967,249.682281 255.104675,259.969269 
	C259.172913,270.495575 267.238770,276.177582 278.311127,276.703369 
	C290.017090,277.259247 298.754822,271.979034 304.109924,260.471252 
M341.983032,273.847504 
	C346.522095,278.222443 351.792847,275.056793 356.660553,276.044861 
	C357.262329,275.215393 357.864105,274.385925 358.465881,273.556458 
	C349.781891,265.898590 341.097931,258.240723 332.164062,250.362503 
	C340.331909,241.916992 347.670135,234.329300 354.926727,226.826019 
	C348.674194,225.833252 342.950470,226.212402 338.137482,232.306412 
	C333.804260,237.792938 328.151703,242.237442 322.495544,247.707840 
	C322.495544,240.445511 322.495544,233.738708 322.495544,226.948349 
	C318.704803,226.948349 315.504395,226.948349 312.368134,226.948349 
	C312.368134,243.441742 312.368134,259.544891 312.368134,275.828430 
	C315.739960,275.828430 318.855804,275.828430 322.622009,275.828430 
	C322.622009,268.566254 322.622009,261.403656 322.622009,253.091461 
	C329.502167,260.453033 335.494629,266.864746 341.983032,273.847504 
z"/>
<path fill="#239EFD" opacity="1.000000" stroke="none" 
	d="
M173.041962,298.005676 
	C164.475525,298.395538 156.974350,296.997681 150.753937,291.291962 
	C145.008453,286.021912 142.263931,279.484985 142.254044,271.754944 
	C142.236359,257.922791 142.095047,244.088425 142.290024,230.258987 
	C142.509171,214.714996 153.399567,204.105408 169.004959,204.011734 
	C182.503357,203.930710 196.003311,203.911057 209.501358,204.017502 
	C225.184372,204.141159 235.994049,215.208389 236.003952,230.966049 
	C236.012329,244.298294 236.013123,257.630524 236.003754,270.962769 
	C235.992554,286.913757 225.062927,297.903717 209.031281,297.992432 
	C197.199265,298.057892 185.366592,298.005524 173.041962,298.005676 
M184.699799,239.136826 
	C191.303848,234.167267 197.361588,235.868607 202.123886,240.194366 
	C204.350037,238.685944 206.215530,237.421890 208.067398,236.167068 
	C198.622131,226.816696 185.178818,226.880127 177.382858,235.726700 
	C170.113815,243.975357 171.456406,257.015320 180.249237,263.566711 
	C188.830994,269.960815 201.851257,268.427216 207.055878,260.638062 
	C205.752991,258.887817 204.487503,257.187836 203.302963,255.596573 
	C195.736618,261.328979 188.894196,261.561981 184.135208,256.796600 
	C179.631149,252.286484 179.632401,245.751984 184.699799,239.136826 
M222.475937,257.660950 
	C223.791534,256.392273 225.113403,255.130005 226.421280,253.853409 
	C228.525421,251.799606 228.717087,249.477890 226.105698,248.063843 
	C221.970291,245.824554 221.639847,242.365768 221.870911,238.361847 
	C222.014084,235.880997 222.057388,233.329590 221.645523,230.894409 
	C220.661011,225.073502 216.603256,222.436722 210.634979,223.857239 
	C210.997421,225.508698 211.031265,228.471008 211.791626,228.670990 
	C216.658524,229.951050 215.374817,233.706284 215.470047,236.805557 
	C215.627747,241.938766 214.829666,247.257782 219.326462,251.088074 
	C215.592621,256.328613 215.699188,256.331573 215.424301,266.254913 
	C215.365570,268.375031 214.777405,271.761383 213.474060,272.317780 
	C210.034103,273.786255 210.896484,275.833649 211.228043,278.162659 
	C217.710541,278.785248 221.383026,275.946167 221.835815,269.882568 
	C222.120285,266.073029 222.031464,262.235596 222.475937,257.660950 
M167.819427,226.322189 
	C168.185135,223.697983 167.072723,222.549194 164.447647,223.038010 
	C159.955704,223.874435 157.432724,226.692261 156.941635,231.134918 
	C156.650620,233.767670 156.695099,236.464096 156.863205,239.114487 
	C157.088638,242.668701 156.503815,245.548157 153.077011,247.604172 
	C149.834274,249.549728 150.085892,252.301682 152.951126,254.441162 
	C156.286392,256.931610 157.189270,260.119568 156.866516,264.041656 
	C156.676376,266.352386 156.703690,268.717957 156.963867,271.021484 
	C157.599808,276.651794 161.974884,279.379608 168.292282,277.593384 
	C167.677582,276.033173 167.391296,273.486511 166.434753,273.203278 
	C162.871475,272.148102 163.019928,269.630127 163.000061,266.906525 
	C162.959549,261.356964 164.096405,255.524414 160.040497,252.120239 
	C161.193359,248.021118 162.598434,244.834686 162.897888,241.547546 
	C163.378769,236.268829 161.738953,230.461823 167.819427,226.322189 
z"/>
<path fill="#EEEDF9" opacity="1.000000" stroke="none" 
	d="
M304.001495,260.844269 
	C298.754822,271.979034 290.017090,277.259247 278.311127,276.703369 
	C267.238770,276.177582 259.172913,270.495575 255.104675,259.969269 
	C251.128967,249.682281 254.842865,237.577911 263.693970,230.978729 
	C272.833435,224.164566 286.099030,224.073456 295.403137,230.760895 
	C304.733368,237.467102 308.056915,248.808182 304.001495,260.844269 
M290.758484,239.774033 
	C285.597717,235.076797 279.741302,233.653336 273.296692,236.604675 
	C267.090149,239.446976 264.084564,244.639786 264.111359,251.362305 
	C264.137268,257.867432 267.108124,262.861176 272.988647,265.843750 
	C279.109589,268.948273 287.155029,267.160309 291.577911,261.871582 
	C296.635193,255.824265 296.509003,247.551163 290.758484,239.774033 
z"/>
<path fill="#EEEDF9" opacity="1.000000" stroke="none" 
	d="
M341.735046,273.561981 
	C335.494629,266.864746 329.502167,260.453033 322.622009,253.091461 
	C322.622009,261.403656 322.622009,268.566254 322.622009,275.828430 
	C318.855804,275.828430 315.739960,275.828430 312.368134,275.828430 
	C312.368134,259.544891 312.368134,243.441742 312.368134,226.948349 
	C315.504395,226.948349 318.704803,226.948349 322.495544,226.948349 
	C322.495544,233.738708 322.495544,240.445511 322.495544,247.707840 
	C328.151703,242.237442 333.804260,237.792938 338.137482,232.306412 
	C342.950470,226.212402 348.674194,225.833252 354.926727,226.826019 
	C347.670135,234.329300 340.331909,241.916992 332.164062,250.362503 
	C341.097931,258.240723 349.781891,265.898590 358.465881,273.556458 
	C357.864105,274.385925 357.262329,275.215393 356.660553,276.044861 
	C351.792847,275.056793 346.522095,278.222443 341.735046,273.561981 
z"/>
<path fill="#070C46" opacity="1.000000" stroke="none" 
	d="
M184.419159,239.398407 
	C179.632401,245.751984 179.631149,252.286484 184.135208,256.796600 
	C188.894196,261.561981 195.736618,261.328979 203.302963,255.596573 
	C204.487503,257.187836 205.752991,258.887817 207.055878,260.638062 
	C201.851257,268.427216 188.830994,269.960815 180.249237,263.566711 
	C171.456406,257.015320 170.113815,243.975357 177.382858,235.726700 
	C185.178818,226.880127 198.622131,226.816696 208.067398,236.167068 
	C206.215530,237.421890 204.350037,238.685944 202.123886,240.194366 
	C197.361588,235.868607 191.303848,234.167267 184.419159,239.398407 
z"/>
<path fill="#070C46" opacity="1.000000" stroke="none" 
	d="
M222.293030,258.035828 
	C222.031464,262.235596 222.120285,266.073029 221.835815,269.882568 
	C221.383026,275.946167 217.710541,278.785248 211.228043,278.162659 
	C210.896484,275.833649 210.034103,273.786255 213.474060,272.317780 
	C214.777405,271.761383 215.365570,268.375031 215.424301,266.254913 
	C215.699188,256.331573 215.592621,256.328613 219.326462,251.088074 
	C214.829666,247.257782 215.627747,241.938766 215.470047,236.805557 
	C215.374817,233.706284 216.658524,229.951050 211.791626,228.670990 
	C211.031265,228.471008 210.997421,225.508698 210.634979,223.857239 
	C216.603256,222.436722 220.661011,225.073502 221.645523,230.894409 
	C222.057388,233.329590 222.014084,235.880997 221.870911,238.361847 
	C221.639847,242.365768 221.970291,245.824554 226.105698,248.063843 
	C228.717087,249.477890 228.525421,251.799606 226.421280,253.853409 
	C225.113403,255.130005 223.791534,256.392273 222.293030,258.035828 
z"/>
<path fill="#070C46" opacity="1.000000" stroke="none" 
	d="
M167.810608,226.730896 
	C161.738953,230.461823 163.378769,236.268829 162.897888,241.547546 
	C162.598434,244.834686 161.193359,248.021118 160.040497,252.120239 
	C164.096405,255.524414 162.959549,261.356964 163.000061,266.906525 
	C163.019928,269.630127 162.871475,272.148102 166.434753,273.203278 
	C167.391296,273.486511 167.677582,276.033173 168.292282,277.593384 
	C161.974884,279.379608 157.599808,276.651794 156.963867,271.021484 
	C156.703690,268.717957 156.676376,266.352386 156.866516,264.041656 
	C157.189270,260.119568 156.286392,256.931610 152.951126,254.441162 
	C150.085892,252.301682 149.834274,249.549728 153.077011,247.604172 
	C156.503815,245.548157 157.088638,242.668701 156.863205,239.114487 
	C156.695099,236.464096 156.650620,233.767670 156.941635,231.134918 
	C157.432724,226.692261 159.955704,223.874435 164.447647,223.038010 
	C167.072723,222.549194 168.185135,223.697983 167.810608,226.730896 
z"/>
<path fill="#140F30" opacity="1.000000" stroke="none" 
	d="
M291.003906,240.053085 
	C296.509003,247.551163 296.635193,255.824265 291.577911,261.871582 
	C287.155029,267.160309 279.109589,268.948273 272.988647,265.843750 
	C267.108124,262.861176 264.137268,257.867432 264.111359,251.362305 
	C264.084564,244.639786 267.090149,239.446976 273.296692,236.604675 
	C279.741302,233.653336 285.597717,235.076797 291.003906,240.053085 
z"/>
</svg>